<?xml version="1.0" standalone="no"?><!DOCTYPE svg PUBLIC "-//W3C//DTD SVG 1.1//EN" "http://www.w3.org/Graphics/SVG/1.1/DTD/svg11.dtd"><svg t="1744005706494" class="icon" viewBox="0 0 1024 1024" version="1.1" xmlns="http://www.w3.org/2000/svg" p-id="16381" xmlns:xlink="http://www.w3.org/1999/xlink" width="200" height="200"><path d="M0 0h1024v1024H0V0z" fill="#202425" opacity=".01" p-id="16382"></path><path d="M462.984533 87.108267a136.533333 136.533333 0 0 1 98.030934 0l311.876266 119.978666c29.184 11.195733 29.184 52.497067 0 63.6928l-311.876266 119.978667a136.533333 136.533333 0 0 1-98.030934 0L151.108267 270.779733c-29.184-11.195733-29.184-52.497067 0-63.6928l311.876266-119.978666zM160.768 351.095467A68.266667 68.266667 0 0 0 68.266667 414.9248v323.345067a136.533333 136.533333 0 0 0 87.7568 127.556266l229.205333 87.620267A68.266667 68.266667 0 0 0 477.866667 889.685333V518.485333a68.266667 68.266667 0 0 0-44.032-63.829333l-273.066667-103.594667z" fill="#FF7744" p-id="16383"></path><path d="M863.232 351.095467a68.266667 68.266667 0 0 1 92.501333 63.829333v323.345067a136.533333 136.533333 0 0 1-87.790933 127.556266l-229.1712 87.620267A68.266667 68.266667 0 0 1 546.133333 889.685333V518.485333a68.266667 68.266667 0 0 1 44.032-63.829333l273.066667-103.594667z" fill="#FFAA44" p-id="16384"></path></svg>